<?xml version="1.0" encoding="UTF-8"?>
<svg xmlns="http://www.w3.org/2000/svg" xmlns:xlink="http://www.w3.org/1999/xlink" width="25pt" height="25pt" viewBox="0 0 25 25" version="1.1">
<g id="surface1">
<path style=" stroke:none;fill-rule:nonzero;fill:rgb(0%,0%,0%);fill-opacity:1;" d="M 16.628906 12.503906 L 24.367188 4.769531 C 25.21875 3.914062 25.21875 2.527344 24.367188 1.675781 L 23.335938 0.644531 C 22.480469 -0.210938 21.09375 -0.210938 20.238281 0.644531 L 12.503906 8.378906 L 4.769531 0.640625 C 3.914062 -0.214844 2.527344 -0.214844 1.675781 0.640625 L 0.640625 1.671875 C -0.214844 2.527344 -0.214844 3.914062 0.640625 4.765625 L 8.378906 12.503906 L 0.644531 20.238281 C -0.210938 21.09375 -0.210938 22.480469 0.644531 23.335938 L 1.675781 24.367188 C 2.527344 25.21875 3.914062 25.21875 4.769531 24.367188 L 12.503906 16.628906 L 20.238281 24.367188 C 21.09375 25.21875 22.480469 25.21875 23.335938 24.367188 L 24.367188 23.335938 C 25.21875 22.480469 25.21875 21.09375 24.367188 20.238281 Z M 16.628906 12.503906 "/>
</g>
</svg>
