<svg width="616" height="452" viewBox="0 0 616 452" fill="none" xmlns="http://www.w3.org/2000/svg">
<g clip-path="url(#clip0)">
<path opacity="0.1" d="M44.5491 181.383C57.512 210.647 40.9725 244.356 21.5343 269.765C15.0155 278.27 7.84985 287.173 6.93548 297.879C5.84694 310.935 14.6921 322.94 25.1918 330.786C44.3314 345.085 70.4812 349.505 93.2596 342.293C112.947 336.076 129.499 321.982 149.353 316.3C182.582 306.794 217.776 322.554 246.208 342.182C266.331 356.071 287.884 372.956 312.143 369.991C329.223 367.902 343.716 355.921 353.544 341.809C358.29 334.97 362.421 327.366 369.337 322.766C373.449 320.03 378.276 318.582 383.109 317.55C427.21 308.131 474.005 331.121 517.522 319.297C546.912 311.308 570.35 288.087 584.918 261.36C599.485 234.632 606.29 204.442 611.957 174.532C615.981 153.276 619.322 130.341 610.091 110.782C600.3 90.0916 577.64 77.5518 554.868 75.2079C532.096 72.8641 509.249 79.3609 488.268 88.5249C462.05 99.983 436.354 116.023 407.735 116.079C388.247 116.116 369.667 108.618 351.031 102.942C319.818 93.4115 287.473 88.6741 255.172 84.3035C224.263 80.1194 193.057 76.2213 161.962 78.7082C139.961 80.4552 120.535 88.8606 99.1874 92.7463C85.2728 95.2829 71.2898 93.368 57.6364 97.664C40.8419 102.917 23.5248 115.109 22.598 134.289C21.7209 152.523 37.6695 165.847 44.5491 181.383Z" fill="#FF5023"/>
<g opacity="0.5">
<path opacity="0.5" d="M434.102 113.872C430.992 114.767 427.129 117.08 425.238 123.428C421.506 135.862 430.14 144.367 427.31 157.28C426.536 160.713 425.053 163.946 422.956 166.773C419.491 171.467 415.722 173.693 412.076 176.981C407.443 181.182 404.123 186.631 402.516 192.673C400.754 199.342 400.607 206.335 402.087 213.072C403.387 218.704 405.601 222.801 407.529 227.371C409.93 233.202 411.804 239.236 413.128 245.4C413.863 248.397 414.28 251.462 414.372 254.546C414.434 258.419 413.831 262.628 413.24 266.781L407.971 303.53C407.268 308.423 406.559 313.397 406.534 318.053C406.497 323.431 407.362 328.05 408.22 332.558C410.086 342.281 412.058 352.371 416.306 357.5C420.555 362.63 427.758 360.851 432.193 350.382C436.41 340.435 436.497 327.13 440.217 316.486C446.076 299.7 457.733 297.462 464.196 281.466C470.416 266.122 468.5 247.272 471.66 229.789C473.912 217.249 478.707 205.81 481.55 193.419C485.637 175.57 485.232 157.043 481.967 143.328C478.701 129.614 472.842 120.195 466.373 113.051C463.63 110.024 460.7 107.332 457.254 107.064C453.59 106.784 450.412 111.416 446.773 112.778C442.555 114.351 438.351 112.666 434.102 113.872Z" fill="#FF5023"/>
<path opacity="0.5" d="M453.938 107.935C453.938 107.935 447.718 266.644 421.637 360.236" stroke="#151417" stroke-width="2" stroke-miterlimit="10"/>
<path opacity="0.5" d="M425.077 124.205C425.077 124.205 452.931 149.577 447.675 197.921" stroke="#151417" stroke-width="2" stroke-miterlimit="10"/>
<path opacity="0.5" d="M401.676 196.397C401.676 196.397 447.457 205.599 444.061 232.966" stroke="#151417" stroke-width="2" stroke-miterlimit="10"/>
<path opacity="0.5" d="M482.023 142.949C482.023 142.949 463.505 159.157 446.997 205.064" stroke="#151417" stroke-width="2" stroke-miterlimit="10"/>
<path opacity="0.5" d="M463.916 281.696C463.916 281.696 451.276 291.643 441.131 256.945" stroke="#151417" stroke-width="2" stroke-miterlimit="10"/>
<path opacity="0.5" d="M409.389 301.932C409.389 301.932 435.166 298.569 437.542 282.429" stroke="#151417" stroke-width="2" stroke-miterlimit="10"/>
</g>
<path d="M496.41 7.42317C490.028 8.36817 482.353 11.3213 479.199 20.4417C473.01 38.322 491.832 51.8566 487.497 70.5389C486.197 76.1343 482.993 80.6852 479.616 84.0051C472.997 90.5082 465.465 93.3307 458.311 97.7448C451.158 102.159 443.731 109.085 440.379 119.722C437.15 129.955 438.55 141.264 441.902 149.713C445.255 158.162 450.331 164.46 454.865 171.411C460.387 179.968 465.005 189.075 468.643 198.586C470.267 202.77 471.753 207.184 472.282 212.195C472.867 217.908 472.126 224.057 471.393 230.075L464.849 283.542C463.978 290.661 463.101 297.904 463.605 304.761C464.171 312.675 466.51 319.576 468.817 326.316C473.794 340.851 479.118 355.952 488.492 364.003C497.866 372.055 512.595 370.295 520.52 355.399C528.065 341.218 526.678 321.665 533.109 306.433C543.248 282.429 567.103 280.49 578.579 257.704C589.595 235.845 583.431 207.88 587.854 182.477C591.026 164.274 599.604 148.004 604.026 130.092C610.371 104.285 607.341 76.9612 598.944 56.3764C590.547 35.7917 577.31 21.2251 563.078 9.94109C557.045 5.16016 550.638 0.839296 543.497 0.043511C535.884 -0.802011 529.813 5.60157 522.479 7.2118C513.957 9.12044 505.063 6.14246 496.41 7.42317Z" fill="#FF5023"/>
<path d="M536.754 1.01959C536.754 1.01959 542.757 234.011 499.831 368.741" stroke="#151417" stroke-width="2" stroke-miterlimit="10"/>
<path d="M478.95 21.5608C478.95 21.5608 539.672 62.2329 534.472 132.797" stroke="#151417" stroke-width="2" stroke-miterlimit="10"/>
<path d="M439.091 125.106C439.091 125.106 534.932 144.081 531.15 183.976" stroke="#151417" stroke-width="2" stroke-miterlimit="10"/>
<path d="M599.031 55.9164C599.031 55.9164 562.606 77.5891 533.912 143.235" stroke="#151417" stroke-width="2" stroke-miterlimit="10"/>
<path d="M578.019 258.089C578.019 258.089 553.039 271.232 527.928 218.922" stroke="#151417" stroke-width="2" stroke-miterlimit="10"/>
<path d="M467.53 281.435C467.53 281.435 520.482 279.532 523.512 256.056" stroke="#151417" stroke-width="2" stroke-miterlimit="10"/>
<path opacity="0.1" d="M303.677 389.058C450.595 389.058 569.697 377.624 569.697 363.519C569.697 349.413 450.595 337.979 303.677 337.979C156.758 337.979 37.6571 349.413 37.6571 363.519C37.6571 377.624 156.758 389.058 303.677 389.058Z" fill="#FF5023"/>
<path d="M41.8309 333.117C41.8309 333.117 47.0434 339.956 39.4237 350.214C31.8039 360.472 25.5215 369.189 28.0904 375.598C28.0904 375.598 39.5854 356.493 48.9406 356.226C58.2958 355.959 52.1253 344.606 41.8309 333.117Z" fill="#FF5023"/>
<path opacity="0.1" d="M41.8309 333.117C42.2851 333.776 42.6433 334.496 42.8945 335.256C52.0258 345.974 56.8838 355.977 48.1133 356.232C39.9399 356.468 30.1369 371.072 27.7856 374.765C27.8632 375.05 27.9567 375.33 28.0656 375.605C28.0656 375.605 39.5605 356.499 48.9157 356.232C58.2709 355.965 52.1253 344.606 41.8309 333.117Z" fill="black"/>
<path d="M51.522 341.802C51.522 344.202 51.2545 346.154 50.9 346.154C50.5454 346.154 50.278 344.208 50.278 341.802C50.278 339.396 50.6138 340.559 50.9435 340.559C51.2732 340.559 51.522 339.403 51.522 341.802Z" fill="#FFD037"/>
<path d="M54.8374 344.662C52.7287 345.812 50.8938 346.527 50.7383 346.21C50.5828 345.893 52.1565 344.749 54.2651 343.605C56.3738 342.461 55.5403 343.294 55.702 343.605C55.8637 343.916 56.9522 343.506 54.8374 344.662Z" fill="#FFD037"/>
<path d="M14.2941 333.117C14.2941 333.117 9.08154 339.956 16.7013 350.214C24.3211 360.472 30.5786 369.189 28.0905 375.598C28.0905 375.598 16.5956 356.493 7.24036 356.226C-2.11484 355.959 4.00585 344.606 14.2941 333.117Z" fill="#FF5023"/>
<path opacity="0.1" d="M14.294 333.117C13.8398 333.776 13.4816 334.496 13.2304 335.256C4.09909 345.974 -0.758895 355.977 8.0116 356.232C16.185 356.468 25.988 371.072 28.3393 374.765C28.2617 375.05 28.1682 375.33 28.0593 375.605C28.0593 375.605 16.5644 356.499 7.2092 356.232C-2.146 355.965 4.00579 344.606 14.294 333.117Z" fill="black"/>
<path d="M4.60913 341.802C4.60913 344.202 4.8766 346.154 5.23115 346.154C5.5857 346.154 5.85317 344.208 5.85317 341.802C5.85317 339.396 5.51728 340.559 5.18761 340.559C4.85794 340.559 4.60913 339.403 4.60913 341.802Z" fill="#FFD037"/>
<path d="M1.28133 344.662C3.38998 345.812 5.22494 346.527 5.38044 346.21C5.53595 345.893 3.96224 344.749 1.85359 343.605C-0.255066 342.461 0.578444 343.294 0.416718 343.605C0.254993 343.916 -0.827324 343.506 1.28133 344.662Z" fill="#FFD037"/>
<path d="M6.26379 374.709C6.26379 374.709 20.8377 374.262 25.2292 371.135C29.6207 368.007 47.622 364.296 48.7354 369.269C49.8488 374.243 70.6368 394.206 54.1843 394.337C37.7318 394.467 15.9549 391.775 11.5696 389.108C7.18438 386.441 6.26379 374.709 6.26379 374.709Z" fill="#A8A8A8"/>
<path opacity="0.2" d="M54.4829 392.621C38.0304 392.751 16.2535 390.059 11.8682 387.392C8.52796 385.359 7.19683 378.067 6.7552 374.703H6.27002C6.27002 374.703 7.19061 386.453 11.5759 389.121C15.9611 391.788 37.7381 394.486 54.2154 394.355C58.9677 394.318 60.6036 392.627 60.5165 390.128C59.8136 391.638 58.016 392.583 54.4829 392.621Z" fill="black"/>
<path d="M195.955 280.359C195.955 280.359 268.887 233.787 319.308 233.787C319.308 233.787 380.011 224.337 446.039 240.309C512.066 256.28 536.456 276.989 554.762 270.909L477.855 273.16L195.955 280.359Z" fill="#8CD0F3"/>
<path opacity="0.1" d="M195.955 280.359C195.955 280.359 268.887 233.787 319.308 233.787C319.308 233.787 380.011 224.337 446.039 240.309C512.066 256.28 536.456 276.989 554.762 270.909L477.855 273.16L195.955 280.359Z" fill="#8CD0F3"/>
<path d="M539.715 351.638H94.9204L107.149 302.666L182.787 282.566L539.715 291.941V351.638Z" fill="#121C3F"/>
<path d="M563.128 321.037V336.667C563.128 336.667 549.923 346.241 548.722 353.739C548.722 353.739 529.813 358.539 524.414 358.539C523.922 358.539 523.387 358.539 522.827 358.595C523.671 356.332 524.33 354.006 524.799 351.638C526.124 344.992 525.957 338.136 524.311 331.562C522.665 324.989 519.581 318.862 515.281 313.624C510.98 308.385 505.571 304.165 499.443 301.267C493.314 298.37 486.619 296.867 479.84 296.867C473.06 296.867 466.365 298.37 460.236 301.267C454.108 304.165 448.699 308.385 444.399 313.624C440.098 318.862 437.014 324.989 435.368 331.562C433.722 338.136 433.555 344.992 434.88 351.638C435.516 354.841 436.494 357.968 437.797 360.963H412.157C412.157 360.963 411.921 361.044 411.535 361.212C410.161 361.834 406.92 363.475 406.453 366.055H193.965L189.611 366.018C190.536 364.465 191.367 362.858 192.099 361.206C193.464 358.145 194.478 354.939 195.122 351.65C196.387 345.369 196.32 338.893 194.928 332.639C193.535 326.386 190.847 320.493 187.036 315.341C183.225 310.189 178.377 305.893 172.803 302.728C167.23 299.564 161.054 297.602 154.676 296.969C148.297 296.337 141.856 297.047 135.769 299.054C129.682 301.061 124.083 304.321 119.333 308.624C114.583 312.926 110.788 318.176 108.193 324.034C105.597 329.892 104.259 336.229 104.263 342.635C104.263 345.656 104.559 348.669 105.146 351.632C106.149 356.648 107.987 361.46 110.583 365.869C107.547 365.129 100.923 363.027 100.923 363.027C100.923 363.027 72.7142 360.031 65.5112 353.702L66.5998 352.95L71.2152 349.797L69.1127 341.715C68.859 341.374 68.6499 341.003 68.4907 340.609C67.9309 339.26 67.4395 336.754 69.4175 333.608C72.4157 328.809 70.9166 311.712 70.9166 311.712C70.9166 311.712 111.734 283.517 192.167 277.213C192.167 277.213 194.089 278.705 198.058 279.016C200.745 279.234 204.371 278.904 208.98 277.213C208.98 277.213 215.58 280.21 243.814 264.014C243.814 264.014 291.84 231.014 354.869 234.023C354.869 234.023 419.696 230.119 474.919 251.431C498.718 260.607 516.825 265.5 529.732 268.086C541.65 270.48 549.133 270.921 552.56 270.959H552.635C553.754 270.959 554.42 270.959 554.656 270.959H554.756C554.756 270.959 554.756 278.102 555.135 286.539V286.582C555.272 289.517 555.459 292.607 555.72 295.609V295.796C556.441 304.158 557.685 311.755 559.844 313.26L563.128 321.037Z" fill="#2856B8"/>
<path d="M77.4043 311.028C77.4043 311.028 95.4864 296.927 117.997 299.93C117.997 299.93 97.5142 316.132 88.2834 315.081L86.7097 313.732L77.3794 314.254C77.3794 314.254 75.9861 312.078 77.4043 311.028Z" fill="#8CD0F3"/>
<path opacity="0.2" d="M94.9578 335.424V343.748C94.9578 343.748 94.3358 351.7 87.1515 351.998L66.6248 353.012L71.2339 349.86L69.1315 341.777C68.8766 341.44 68.6674 341.07 68.5095 340.677C70.3755 338.961 74.7732 336.064 83.7179 335.442L94.9578 335.424Z" fill="white"/>
<path opacity="0.2" d="M190.475 300.533L206.231 299.912C206.231 299.912 199.855 304.935 195.352 305.389C190.849 305.843 190.475 300.533 190.475 300.533Z" fill="white"/>
<path opacity="0.2" d="M223.641 348.305C223.641 348.305 366.128 328.504 400.569 334.802C400.569 334.802 410.696 335.48 414.527 339.527C418.359 343.574 414.527 340.951 414.527 340.951L223.641 348.305Z" fill="white"/>
<path opacity="0.5" d="M303.403 292.731C303.403 292.731 305.207 289.355 308.131 289.28L327.115 288.304C327.115 288.304 326.816 290.928 323.439 291.904L303.403 292.731Z" fill="#18218A"/>
<path opacity="0.5" d="M413.252 287.03C413.252 287.03 415.056 283.654 417.98 283.579L436.964 282.578C436.964 282.578 436.665 285.202 433.287 286.178L413.252 287.03Z" fill="#18218A"/>
<path d="M348.431 240.775L333.864 278.96L281.34 279.016H267.817H256.055H245.885H234.365C234.365 279.016 241.382 273.868 252.684 267.309C256.416 265.133 260.652 262.808 265.248 260.471C269.478 258.307 274.031 256.119 278.815 254.042C282.547 252.401 286.478 250.822 290.496 249.348C308.715 242.69 329.192 238.22 348.431 240.775Z" fill="#8CD0F3"/>
<path d="M430.961 268.658C430.961 268.658 409.016 271.91 388.073 274.316C380.067 275.236 372.211 276.032 365.78 276.473L364.884 276.535C362.396 276.697 360.088 276.803 358.129 276.84C355.019 276.896 352.692 276.759 351.529 276.386L357.581 239.861C357.581 239.861 365.046 239.942 376.086 240.483L378.5 240.613C380.795 240.744 383.215 240.893 385.74 241.067C389.348 241.316 393.148 241.614 397.067 241.975C415.989 243.709 437.424 246.824 450.996 252.432C479.877 264.381 430.961 268.658 430.961 268.658Z" fill="#8CD0F3"/>
<path d="M532.102 287.03V296.778C532.102 296.778 516.346 297.002 519.724 293.856C521.909 291.767 523.894 289.478 525.651 287.017L532.102 287.03Z" fill="#8CD0F3"/>
<path d="M555.708 295.784L542.913 296.784V285.065C542.913 285.065 548.84 276.741 554.768 285.967L555.11 286.508L555.708 295.784Z" fill="#8CD0F3"/>
<path d="M150.15 379.235C170.373 379.235 186.768 362.849 186.768 342.635C186.768 322.422 170.373 306.035 150.15 306.035C129.926 306.035 113.531 322.422 113.531 342.635C113.531 362.849 129.926 379.235 150.15 379.235Z" fill="#182A7C"/>
<path d="M179.522 342.604C179.535 350.157 176.645 357.426 171.45 362.909C166.255 368.393 159.15 371.673 151.605 372.072C144.059 372.47 136.649 369.956 130.904 365.05C125.16 360.144 121.52 353.22 120.737 345.708C119.955 338.196 122.088 330.671 126.698 324.687C131.307 318.703 138.04 314.716 145.506 313.552C152.972 312.387 160.6 314.133 166.814 318.429C173.029 322.725 177.355 329.243 178.899 336.636C179.309 338.599 179.518 340.599 179.522 342.604Z" fill="#3F8FFE"/>
<path opacity="0.5" d="M150.106 367.895C164.05 367.895 175.354 356.569 175.354 342.598C175.354 328.627 164.05 317.301 150.106 317.301C136.162 317.301 124.858 328.627 124.858 342.598C124.858 356.569 136.162 367.895 150.106 367.895Z" fill="#18218A"/>
<path d="M158.553 314.36V315.429L150.15 343.238L143.407 313.9C148.41 312.735 153.63 312.893 158.553 314.36Z" fill="#3F8FFE"/>
<path d="M158.491 370.861C153.678 372.286 148.581 372.461 143.681 371.371L150.143 343.238L158.491 370.861Z" fill="#3F8FFE"/>
<path d="M179.522 342.604C179.526 345.672 179.051 348.722 178.116 351.644H177.998L150.175 343.245L178.949 336.642C179.341 338.605 179.532 340.603 179.522 342.604Z" fill="#3F8FFE"/>
<path d="M150.15 343.239L122.327 351.638H122.109C120.559 346.782 120.283 341.61 121.307 336.617L150.15 343.239Z" fill="#3F8FFE"/>
<path d="M150.106 345.825C151.889 345.825 153.334 344.38 153.334 342.598C153.334 340.816 151.889 339.371 150.106 339.371C148.323 339.371 146.878 340.816 146.878 342.598C146.878 344.38 148.323 345.825 150.106 345.825Z" fill="#182A7C"/>
<path d="M479.616 379.235C499.839 379.235 516.234 362.849 516.234 342.635C516.234 322.422 499.839 306.035 479.616 306.035C459.392 306.035 442.997 322.422 442.997 342.635C442.997 362.849 459.392 379.235 479.616 379.235Z" fill="#182A7C"/>
<path d="M508.994 342.604C509.007 350.157 506.118 357.426 500.922 362.909C495.727 368.393 488.623 371.673 481.077 372.072C473.532 372.47 466.121 369.956 460.377 365.05C454.632 360.144 450.993 353.22 450.21 345.708C449.427 338.196 451.561 330.671 456.17 324.687C460.779 318.703 467.512 314.716 474.978 313.552C482.444 312.387 490.072 314.133 496.287 318.429C502.501 322.725 506.827 329.243 508.372 336.636C508.781 338.599 508.99 340.599 508.994 342.604Z" fill="#3F8FFE"/>
<path opacity="0.5" d="M479.578 367.895C493.522 367.895 504.826 356.569 504.826 342.598C504.826 328.627 493.522 317.301 479.578 317.301C465.634 317.301 454.33 328.627 454.33 342.598C454.33 356.569 465.634 367.895 479.578 367.895Z" fill="#18218A"/>
<path d="M488.019 314.36V315.429L479.616 343.238L472.873 313.9C477.876 312.735 483.096 312.893 488.019 314.36Z" fill="#3F8FFE"/>
<path d="M487.963 370.861C483.15 372.286 478.053 372.461 473.153 371.371L479.616 343.238L487.963 370.861Z" fill="#3F8FFE"/>
<path d="M508.994 342.604C508.998 345.672 508.524 348.722 507.588 351.644H507.445L479.616 343.239L508.39 336.636C508.793 338.6 508.995 340.6 508.994 342.604Z" fill="#3F8FFE"/>
<path d="M479.616 343.239L451.793 351.638H451.575C450.025 346.782 449.749 341.61 450.772 336.617L479.616 343.239Z" fill="#3F8FFE"/>
<path d="M479.578 345.825C481.361 345.825 482.807 344.38 482.807 342.598C482.807 340.816 481.361 339.371 479.578 339.371C477.795 339.371 476.35 340.816 476.35 342.598C476.35 344.38 477.795 345.825 479.578 345.825Z" fill="#182A7C"/>
<path opacity="0.2" d="M265.255 260.508L256.055 279.041H245.885L252.684 267.347C256.434 265.171 260.658 262.852 265.255 260.508Z" fill="white"/>
<path opacity="0.2" d="M290.496 249.385L281.334 279.022H267.811L278.821 254.067C282.578 252.438 286.484 250.871 290.496 249.385Z" fill="white"/>
<path opacity="0.2" d="M385.753 241.098L365.792 276.48L364.896 276.542C362.408 276.703 360.1 276.809 358.141 276.846L376.099 240.52L378.512 240.651C380.776 240.775 383.215 240.924 385.753 241.098Z" fill="white"/>
<path opacity="0.2" d="M234.713 278.917L223.318 357.37L318.493 355.287L334.119 279.259L234.713 278.917Z" stroke="white" stroke-miterlimit="10"/>
<path opacity="0.5" d="M411.542 361.187C410.167 361.809 406.926 363.45 406.46 366.03H193.965L189.611 365.993C190.536 364.44 191.367 362.834 192.099 361.181L411.542 361.187Z" fill="#18218A"/>
<path d="M227.828 417.881C229.277 416.532 230.639 414.94 231.062 413.006C231.485 411.073 230.658 408.748 228.804 408.033C226.733 407.237 224.512 408.655 222.833 410.128C221.153 411.601 219.225 413.236 217.029 412.926C218.16 411.9 219.006 410.6 219.485 409.151C219.963 407.702 220.058 406.154 219.76 404.657C219.664 404.039 219.401 403.459 219.001 402.978C217.851 401.735 215.761 402.276 214.386 403.246C210.032 406.354 208.788 412.279 208.757 417.638C208.315 415.705 208.688 413.69 208.676 411.707C208.663 409.724 208.122 407.529 206.449 406.46C205.407 405.9 204.235 405.626 203.053 405.664C201.081 405.59 198.885 405.788 197.542 407.231C195.868 409.021 196.297 412.024 197.759 413.995C199.221 415.966 201.429 417.203 203.463 418.565C205.096 419.537 206.489 420.866 207.537 422.45C207.662 422.672 207.764 422.905 207.842 423.147H220.196C222.966 421.743 225.533 419.972 227.828 417.881Z" fill="#FF5023"/>
<path d="M486.022 428.338C487.162 427.409 487.993 426.156 488.405 424.744C488.716 423.314 488.106 421.605 486.738 421.082C485.208 420.498 483.572 421.555 482.334 422.631C481.096 423.706 479.672 424.925 478.048 424.695C478.883 423.939 479.507 422.979 479.86 421.911C480.213 420.842 480.283 419.7 480.063 418.596C479.993 418.138 479.8 417.708 479.504 417.352C478.651 416.445 477.115 416.836 476.095 417.551C472.86 419.827 471.959 424.216 471.94 428.17C471.616 426.746 471.89 425.26 471.878 423.818C471.865 422.376 471.467 420.709 470.236 419.951C469.472 419.541 468.614 419.337 467.747 419.36C466.292 419.304 464.675 419.454 463.679 420.517C462.435 421.835 462.765 424.054 463.841 425.49C464.917 426.927 466.547 427.853 468.052 428.86C469.259 429.577 470.288 430.557 471.063 431.726C471.154 431.888 471.229 432.059 471.287 432.236H480.399C482.441 431.196 484.333 429.885 486.022 428.338Z" fill="#FF5023"/>
<path d="M526.454 448.114C527.594 447.185 528.425 445.932 528.836 444.521C529.147 443.091 528.538 441.381 527.169 440.859C525.639 440.275 524.003 441.331 522.765 442.407C521.527 443.483 520.103 444.701 518.48 444.471C519.314 443.715 519.938 442.756 520.291 441.687C520.645 440.618 520.715 439.476 520.495 438.372C520.425 437.915 520.231 437.485 519.935 437.129C519.083 436.221 517.546 436.613 516.526 437.328C513.292 439.603 512.39 443.992 512.371 447.946C512.048 446.523 512.322 445.037 512.309 443.595C512.297 442.152 511.899 440.486 510.667 439.727C509.903 439.317 509.046 439.114 508.179 439.137C506.723 439.081 505.106 439.23 504.111 440.293C502.867 441.611 503.196 443.831 504.273 445.267C505.349 446.703 506.978 447.629 508.484 448.637C509.69 449.353 510.719 450.333 511.494 451.503C511.585 451.665 511.66 451.836 511.718 452.012H520.831C522.872 450.973 524.764 449.661 526.454 448.114Z" fill="#FF5023"/>
<path d="M409.557 406.553C409.557 406.553 407.387 407.734 406.398 401.045C405.775 396.693 403.965 387.722 402.777 381.896L402.628 381.156C402.968 381.05 403.303 380.925 403.63 380.783C403.63 380.783 396.713 354.05 398.293 348.131C399.872 342.213 398.293 331.606 398.293 331.606L394.144 317.643C394.144 317.643 383.868 314.099 379.918 313.117C375.968 312.134 364.902 305.246 364.902 305.246C365.092 305.467 365.271 305.697 365.437 305.936L364.996 305.669C364.189 304.915 363.459 304.082 362.819 303.182C365.026 300.835 366.455 297.865 366.912 294.677C368.388 291.879 369.085 288.735 368.929 285.576C368.774 282.416 367.772 279.356 366.028 276.716C366.7 275.875 367.213 274.919 367.54 273.893C367.672 273.424 367.728 272.938 367.708 272.451C367.78 271.671 367.611 270.887 367.224 270.206C366.837 269.525 366.25 268.978 365.543 268.64C365.071 268.444 364.564 268.345 364.053 268.351C363.542 268.356 363.038 268.465 362.57 268.671C361.693 269.069 361.002 269.815 360.044 270.014C358.446 270.343 357.077 269.063 355.821 268.111C353.868 266.657 351.539 265.794 349.109 265.625C348.055 265.506 346.987 265.647 345.999 266.035C345.061 266.566 344.196 267.216 343.424 267.968C340.575 270.262 336.582 270.903 333.005 272.152C332.321 272.389 331.562 272.774 331.438 273.396C331.412 273.519 331.412 273.646 331.438 273.769C331.409 273.927 331.422 274.09 331.475 274.241C324.807 275.361 318.282 280.421 318.282 280.421L317.187 281.435C316.829 281.241 316.423 281.156 316.017 281.19C315.612 281.225 315.225 281.377 314.904 281.627L312.702 283.356C312.304 283.667 312.034 284.114 311.942 284.611C311.851 285.108 311.944 285.621 312.205 286.054L296.101 300.975L295.752 301.298V301.242C295.752 301.242 283.312 310.686 283.312 317.369C283.312 322.2 287.044 325.178 289.078 326.465C287.254 328.18 285.874 330.314 285.06 332.682V332.744V332.831V332.899V332.974V333.036V333.105V333.167V333.229V333.285V333.341V333.391V333.447V333.49V333.559V333.621V333.658V333.695V333.969V334.043V334.193V334.298V334.404L285.01 334.678V334.789L284.979 334.976V335.051V335.231V335.361L284.935 335.61L284.879 335.921V335.983L284.836 336.244V336.369L284.786 336.655V336.729L284.73 337.052V337.195L284.587 338.01L284.512 338.451V338.526L284.432 338.98V339.042L284.351 339.502V339.539L284.264 340.024V340.13L284.177 340.609V340.714L284.096 341.187V341.243L284.002 341.777V341.877L283.791 343.071L283.685 343.692V343.786L283.579 344.407V344.451L283.349 345.694V345.8L283.237 346.422V346.509L282.995 347.82V347.876L282.87 348.542V348.598L282.622 349.953V350.04L282.497 350.711V350.761L282.236 352.148V352.222L282.105 352.906V352.956L281.838 354.361V354.417L281.707 355.101V355.157L280.569 356.562V356.624L280.432 357.302V357.339L280.152 358.719V358.756L280.015 359.428V359.465L279.742 360.783V360.839L279.611 361.461V361.517L279.343 362.76V362.804L279.213 363.425V363.488L278.952 364.663V364.694L278.827 365.247V365.303C278.74 365.676 278.655 366.036 278.572 366.385L278.448 366.894V366.938C278.365 367.278 278.284 367.603 278.205 367.914L278.087 368.362V368.411L277.975 368.84C277.477 370.706 277.042 371.949 276.731 372.241C276.416 372.571 276.169 372.96 276.003 373.385L275.953 373.509L275.904 373.646L275.86 373.783L275.655 373.969L275.611 374.112L275.574 374.243L275.537 374.392V374.529L275.506 374.678V374.815C275.506 374.914 275.489 375.014 275.456 375.113V375.238V375.406V375.536V375.704V375.835V376.002V376.133V376.301V376.425C275.456 376.63 275.456 376.829 275.456 377.047C275.456 377.084 275.456 377.122 275.456 377.165C275.456 377.209 275.456 377.271 275.456 377.327C275.456 377.383 275.456 377.408 275.456 377.445C275.456 377.482 275.456 377.551 275.456 377.6C275.456 377.65 275.456 377.675 275.456 377.718C275.456 377.762 275.456 377.818 275.456 377.868V377.979C275.456 378.029 275.456 378.079 275.456 378.129V378.228C275.456 378.319 275.456 378.408 275.456 378.496V379.478V379.615V380.006L277.322 380.572C277.322 380.572 278.261 381.088 279.71 381.759C279.505 388.033 278.927 396.525 277.353 401.723C273.845 401.903 265.18 402.27 263.613 401.642C261.635 400.852 248.989 398.888 252.945 407.933C254.599 411.726 258.201 414.586 261.821 416.637C261.373 416.784 260.916 416.903 260.453 416.992C257.231 417.613 256.335 418.689 256.459 419.796C256.229 421.661 259.401 423.743 259.663 423.874C260.061 424.073 273.49 426.236 276.656 425.248C279.822 424.259 292.661 421.903 292.661 421.903C292.661 421.903 292.661 421.76 292.661 421.511C292.661 421.511 292.487 417.644 292.002 413.976C293.457 413.765 295.043 413.572 296.586 413.454C296.784 414.384 297.192 415.257 297.778 416.005C298.365 416.754 299.114 417.359 299.97 417.775C308.467 422.127 311.234 416.202 311.234 416.202C311.234 416.202 322.723 418.409 329.142 416.824C329.814 417.445 330.387 417.887 330.791 418.185C332.875 419.684 338.485 420.709 344.761 420.784C346.432 420.949 348.117 420.901 349.775 420.641C352.545 420.458 355.293 420.027 357.986 419.354C365.543 417.396 367.204 410.37 367.565 407.181C367.863 407.094 368.075 406.783 368.187 406.199C368.336 405.88 368.425 405.537 368.448 405.185C368.613 403.742 368.883 402.312 369.257 400.908L378.587 401.43C382.754 408.99 386.437 415.002 386.437 415.002L392.757 414.213C389.945 411.964 387.482 409.311 385.448 406.342C382.288 401.623 382.288 378.987 382.288 378.987L382.643 365.203V365.346V364.681C383.227 368.766 387.861 380.616 388.384 380.79C388.763 380.914 389.136 381.026 389.503 381.132L389.839 382.014C392.477 389.002 399.17 406.883 399.642 409.705C400.264 413.249 424.934 414.623 430.464 412.851C435.993 411.079 409.557 406.553 409.557 406.553ZM321.436 328.268L312.391 341.846C309.144 336.251 305.761 331.103 302.7 327.696C310.724 327.963 319.974 328.249 321.436 328.268ZM320.061 293.452C320.412 293.618 320.801 293.682 321.187 293.64C321.572 293.597 321.938 293.448 322.244 293.21L323.016 292.588C323.409 292.282 323.68 291.845 323.777 291.356C323.874 290.867 323.791 290.36 323.544 289.927L324.005 289.473C327.189 288.934 330.332 288.172 333.41 287.192C333.526 289.998 334.316 292.736 335.711 295.174C335.986 296.735 336.498 298.244 337.229 299.651C335.811 299.532 334.268 299.452 332.794 299.464C331.506 299.438 330.218 299.519 328.943 299.707C324.204 300.496 323.606 309.15 323.606 309.15C323.606 309.15 314.083 312.495 308.361 312.613C307.636 312.616 306.914 312.509 306.221 312.296L305.643 312.259L306.42 310.133C306.42 310.133 306.084 310.238 305.531 310.35C305.709 310.081 305.895 309.807 306.09 309.53C309.711 304.338 315.981 297.649 320.061 293.465V293.452ZM300.492 398.49C299.764 399.735 299.11 401.022 298.533 402.344C296.287 402.779 293.227 403.022 291.604 401.635C290.871 401.036 289.95 400.712 289.003 400.722L289.041 400.647C290.16 398.502 291.112 393.696 291.859 388.723C295.479 388.723 298.918 385.695 298.918 385.695L303.478 387.255L303.646 387.572L303.758 387.778L303.938 388.113L304.05 388.325L304.231 388.654L304.349 388.866L304.529 389.189L304.647 389.4L304.821 389.717L304.94 389.929L305.12 390.246L305.238 390.451L305.419 390.762L305.531 390.961L305.711 391.272L305.823 391.464L305.997 391.769L306.109 391.962L306.289 392.266L306.395 392.44L306.576 392.739L306.681 392.913L306.862 393.211L306.955 393.367L307.142 393.671L307.21 393.783C307.533 394.312 307.832 394.815 308.137 395.288L308.18 395.356L308.355 395.63L308.429 395.748L308.585 395.997L308.672 396.127L308.815 396.351L308.902 396.494L309.033 396.699L309.126 396.842L309.25 397.035L309.337 397.172L309.449 397.346L309.536 397.482L309.642 397.644L309.729 397.781L309.829 397.93L309.916 398.061C306.802 398.574 303.639 398.718 300.492 398.49Z" fill="url(#paint0_linear)"/>
<path d="M428.274 411.732C422.881 413.467 398.803 412.117 398.224 408.623C397.764 405.844 391.239 388.356 388.664 381.517L387.631 378.782L400.152 376.083C400.152 376.083 400.613 378.278 401.247 381.405C402.404 387.112 404.152 395.922 404.774 400.15C405.738 406.696 407.884 405.54 407.884 405.54C407.884 405.54 433.648 409.997 428.274 411.732Z" fill="#FFBDC6"/>
<path d="M360.25 298.121C360.25 298.121 359.286 303.897 367.571 309.312C375.856 314.727 368.728 334.149 368.728 334.149L362.601 334.491C358.71 334.709 354.886 333.411 351.933 330.87C348.979 328.328 347.127 324.741 346.764 320.863C346.764 320.863 350.229 315.268 343.872 300.838L360.25 298.121Z" fill="#FFBDC6"/>
<path d="M324.446 291.015C324.446 291.015 312.522 302.635 306.98 310.642C306.323 311.571 305.723 312.539 305.182 313.54C301.139 321.242 291.734 308.721 294.987 304.394L297.233 302.299L318.854 282.156C318.854 282.156 333.689 270.604 341.197 278.886C348.705 287.167 324.446 291.015 324.446 291.015Z" fill="#FFBDC6"/>
<path d="M350.932 305.358C360.506 305.358 368.268 297.6 368.268 288.031C368.268 278.461 360.506 270.704 350.932 270.704C341.358 270.704 333.596 278.461 333.596 288.031C333.596 297.6 341.358 305.358 350.932 305.358Z" fill="#A66477"/>
<path d="M280.339 400.753C280.339 400.753 267.432 401.524 265.504 400.753C263.575 399.982 251.253 398.061 255.128 406.92C259.003 415.779 273.621 419.435 273.621 419.435L284.195 416.737L280.339 400.753Z" fill="#7679B4"/>
<path opacity="0.05" d="M280.339 400.753C280.339 400.753 267.432 401.524 265.504 400.753C263.575 399.982 251.253 398.061 255.128 406.92C259.003 415.779 273.621 419.435 273.621 419.435L284.195 416.737L280.339 400.753Z" fill="black"/>
<path d="M326.374 362.828L352.282 373.348L367.017 404.632C367.017 404.632 367.21 415.605 357.581 418.111C347.952 420.616 334.467 419.46 330.996 416.954C327.525 414.449 313.275 399.627 313.275 399.627L326.374 362.828Z" fill="#7679B4"/>
<path opacity="0.05" d="M324.614 362.828L347.038 371.228L359.796 396.264C359.796 396.264 359.964 405.049 351.629 407.051C343.293 409.052 331.618 408.126 328.614 406.124C325.609 404.122 313.275 392.254 313.275 392.254L324.614 362.828Z" fill="black"/>
<path d="M302.296 400.753C302.296 400.753 295.553 403.065 292.86 400.753C290.167 398.44 285.346 401.331 285.346 401.331L287.473 413.846C287.473 413.846 297.102 411.726 302.308 412.304L302.296 400.753Z" fill="#FFBDC6"/>
<path opacity="0.05" d="M302.296 400.753C302.296 400.753 295.553 403.065 292.86 400.753C290.167 398.44 285.346 401.331 285.346 401.331L287.473 413.846C287.473 413.846 297.102 411.726 302.308 412.304L302.296 400.753Z" fill="black"/>
<path d="M306.134 387.28L299.982 385.16C299.982 385.16 293.239 391.129 288.786 386.124C284.332 381.119 292.829 360.323 292.829 360.323L301.879 345.688L308.429 366.291L314.401 376.301L306.134 387.28Z" fill="#565388"/>
<path opacity="0.05" d="M306.134 387.28L299.982 385.16C299.982 385.16 293.239 391.129 288.786 386.124C284.332 381.119 292.829 360.323 292.829 360.323L301.879 345.688L308.429 366.291L314.401 376.301L306.134 387.28Z" fill="black"/>
<path d="M364.896 386.124L378.767 388.045L381.467 400.753L364.324 399.789L364.896 386.124Z" fill="#565388"/>
<path opacity="0.05" d="M364.896 386.124L378.767 388.045L381.467 400.753L364.324 399.789L364.896 386.124Z" fill="black"/>
<path opacity="0.1" d="M345.446 316.43C345.446 316.43 351.224 338.569 369.704 322.592L374.712 386.124C374.712 386.124 368.547 395.941 367.583 404.775C366.619 413.61 349.862 377.42 339.847 377.246C329.833 377.072 319.912 363.096 319.912 363.096L331.183 339.894L345.446 316.43Z" fill="black"/>
<path d="M345.638 315.852C345.638 315.852 351.417 337.991 369.897 322.013L374.905 385.546C374.905 385.546 368.74 395.362 367.776 404.197C366.812 413.031 350.055 376.842 340.04 376.668C330.026 376.494 320.104 362.518 320.104 362.518L331.376 339.315L345.638 315.852Z" fill="#F2F1F2"/>
<path opacity="0.1" d="M342.553 301.603C342.553 301.603 334.467 300.254 329.839 301.025C325.211 301.795 324.639 310.263 324.639 310.263C324.639 310.263 311.539 314.882 307.111 313.372C307.111 313.372 285.34 311.83 285.34 318.376C285.34 324.923 292.282 327.963 292.282 327.963C292.282 327.963 322.506 328.983 322.717 328.927C329.653 327 322.524 328.927 322.524 328.927L310.003 347.796L321.56 363.773L333.889 354.728C333.889 354.728 335.431 346.254 339.487 342.02C342.373 338.992 346.149 325.364 348.071 317.823C348.475 316.235 348.559 314.582 348.319 312.961C348.079 311.34 347.519 309.782 346.671 308.379L342.553 301.603Z" fill="black"/>
<path opacity="0.1" d="M306.98 310.642C306.323 311.571 305.723 312.539 305.182 313.539C301.139 321.242 291.734 308.721 294.987 304.394L297.233 302.299C296.412 312.234 304.504 311.177 306.98 310.642Z" fill="black"/>
<path opacity="0.1" d="M322.524 328.175H322.307C322.307 328.175 329.46 326.247 322.524 328.175Z" fill="black"/>
<path d="M341.975 301.603C341.975 301.603 333.889 300.254 329.261 301.025C324.633 301.795 324.061 310.263 324.061 310.263C324.061 310.263 310.961 314.882 306.532 313.372L307.303 311.252C307.303 311.252 295.56 314.907 296.903 302.566C296.903 302.566 284.768 311.805 284.768 318.352C284.768 324.898 291.703 327.963 291.703 327.963C291.703 327.963 321.927 328.983 322.139 328.927C329.074 327 321.946 328.927 321.946 328.927L309.424 347.796L320.982 363.773L333.31 354.728C333.31 354.728 334.853 346.254 338.908 342.02C341.794 338.992 345.57 325.364 347.492 317.823C347.896 316.235 347.981 314.582 347.74 312.961C347.5 311.34 346.94 309.782 346.093 308.379L341.975 301.603Z" fill="#565388"/>
<path opacity="0.1" d="M381.66 364.178V365.234C381.578 364.887 381.578 364.525 381.66 364.178Z" fill="black"/>
<path opacity="0.1" d="M401.247 381.43C397.153 382.69 392.78 382.729 388.664 381.542L387.631 378.806L400.152 376.108C400.152 376.108 400.606 378.321 401.247 381.43Z" fill="black"/>
<path opacity="0.1" d="M363.745 306.415C363.745 306.415 374.531 313.154 378.388 314.118C382.244 315.081 392.259 318.544 392.259 318.544L396.302 332.222C396.302 332.222 397.845 342.617 396.302 348.386C394.76 354.156 380.316 365.135 381.087 363.4L380.702 378.607C380.702 378.607 380.702 400.746 383.812 405.341C386.922 409.935 377.934 400.815 377.934 400.815C377.934 400.815 367.048 384.737 365.705 374.535C364.361 364.333 366.47 325.091 366.47 325.091L364.542 322.393C364.542 322.393 368.56 311.998 363.745 306.415Z" fill="black"/>
<path d="M364.324 306.415C364.324 306.415 375.11 313.154 378.966 314.118C382.823 315.081 392.837 318.544 392.837 318.544L396.881 332.222C396.881 332.222 398.423 342.617 396.881 348.386C395.338 354.156 402.081 380.348 402.081 380.348C402.081 380.348 395.86 383.22 387.245 380.348C386.667 380.155 380.888 365.141 381.647 363.407L381.262 378.614C381.262 378.614 381.262 400.753 384.372 405.347C386.355 408.252 388.757 410.848 391.5 413.05L385.336 413.821C385.336 413.821 367.596 384.775 366.246 374.591C364.896 364.408 367.017 325.109 367.017 325.109L365.089 322.411C365.089 322.411 369.138 311.998 364.324 306.415Z" fill="#565388"/>
<path d="M311.732 398.838C311.732 398.838 298.825 380.187 299.404 371.483C299.404 371.483 297.861 383.419 296.132 384.19C294.403 384.961 277.061 379.565 277.061 379.565C277.061 379.565 276.289 373.969 278.218 372.055C280.146 370.14 286.117 334.51 286.117 334.51C286.117 334.51 288.238 324.886 297.482 324.307C306.725 323.729 327.532 370.706 327.532 370.706C327.532 370.706 330.611 398.838 311.732 398.838Z" fill="#7679B4"/>
<path d="M281.303 373.416C281.303 373.416 281.688 400.367 276.874 404.8C272.06 409.233 290.938 411.539 290.938 411.539C290.938 411.539 287.666 404.993 290.359 399.795C293.053 394.598 294.788 373.416 294.788 373.416H281.303Z" fill="#FFBDC6"/>
<path opacity="0.05" d="M282.261 404.433C282.261 404.433 280.332 399.621 275.132 403.47C275.132 403.47 270.511 414.25 262.418 415.792C254.326 417.334 261.261 421.953 261.647 422.146C262.033 422.338 275.132 424.458 278.211 423.495C281.29 422.531 293.812 420.225 293.812 420.225C293.812 420.225 293.233 407.517 291.324 406.547C289.414 405.577 290.353 412.31 282.261 404.433Z" fill="black"/>
<path d="M282.261 404.8C282.261 404.8 280.332 399.988 275.132 403.836C275.132 403.836 270.511 414.617 262.418 416.159C254.326 417.7 261.261 422.32 261.647 422.512C262.033 422.705 275.132 424.825 278.211 423.862C281.29 422.898 293.818 420.598 293.818 420.598C293.818 420.598 293.239 407.89 291.33 406.92C289.42 405.95 290.353 412.689 282.261 404.8Z" fill="#7679B4"/>
<path d="M318.531 283.822C320.157 286.347 321.909 288.79 323.781 291.139C323.959 291.348 324.093 291.59 324.176 291.852C324.258 292.114 324.286 292.39 324.259 292.663C324.231 292.936 324.149 293.2 324.017 293.441C323.884 293.681 323.705 293.892 323.488 294.061L322.736 294.652C322.521 294.82 322.274 294.944 322.01 295.015C321.746 295.086 321.471 295.103 321.201 295.065C320.93 295.027 320.67 294.935 320.436 294.795C320.201 294.655 319.998 294.469 319.837 294.248C318.151 291.913 316.041 289.916 313.617 288.36C313.34 288.188 313.109 287.952 312.942 287.671C312.776 287.391 312.68 287.074 312.662 286.749C312.643 286.423 312.704 286.098 312.837 285.801C312.971 285.504 313.174 285.243 313.43 285.04L315.576 283.349C315.797 283.175 316.051 283.049 316.324 282.978C316.596 282.907 316.88 282.894 317.157 282.938C317.435 282.983 317.7 283.084 317.937 283.236C318.173 283.388 318.375 283.588 318.531 283.822Z" fill="#565388"/>
<path opacity="0.1" d="M362.483 304.96C359.995 301.46 360.467 298.687 360.467 298.687L344.077 301.41C345.216 303.95 346.152 306.575 346.876 309.262C349.621 310.064 352.534 310.086 355.291 309.326C358.047 308.566 360.537 307.054 362.483 304.96Z" fill="black"/>
<path d="M351.031 309.299C359.541 309.299 366.439 302.405 366.439 293.9C366.439 285.395 359.541 278.5 351.031 278.5C342.522 278.5 335.624 285.395 335.624 293.9C335.624 302.405 342.522 309.299 351.031 309.299Z" fill="#FFBDC6"/>
<path opacity="0.1" d="M344.251 285.873C345.707 285.631 347.001 284.779 348.475 284.705C350.341 284.611 352.027 285.805 353.339 287.036C354.652 288.267 355.927 289.672 357.731 290.207C358.883 290.477 360.073 290.557 361.251 290.443C361.907 290.476 362.557 290.312 363.117 289.971C363.399 289.709 363.613 289.382 363.739 289.019C364.242 287.861 364.497 286.611 364.488 285.348C364.478 284.086 364.204 282.84 363.683 281.689C363.538 281.451 363.476 281.171 363.509 280.894C363.565 280.729 363.657 280.578 363.777 280.452C365.021 278.985 366.333 277.518 366.837 275.74C367.341 273.962 366.725 271.773 364.89 270.984C364.432 270.787 363.939 270.685 363.441 270.685C362.942 270.685 362.449 270.787 361.991 270.984C361.133 271.375 360.468 272.103 359.503 272.295C357.942 272.619 356.605 271.363 355.386 270.43C353.486 269.007 351.216 268.161 348.848 267.993C347.812 267.875 346.763 268.013 345.794 268.397C344.889 268.91 344.052 269.537 343.306 270.262C340.526 272.507 336.632 273.135 333.148 274.36C332.483 274.596 331.743 274.944 331.618 275.603C331.494 276.262 332.24 276.927 332.987 277.213C333.733 277.499 334.591 277.686 335.089 278.264C335.711 279.01 335.512 280.067 335.624 281.006C335.854 282.871 337.49 283.884 339.3 284.425C340.799 284.904 342.765 286.122 344.251 285.873Z" fill="black"/>
<path d="M344.251 285.488C345.707 285.246 347.001 284.394 348.475 284.319C350.341 284.226 352.027 285.42 353.339 286.651C354.652 287.882 355.927 289.287 357.731 289.821C358.883 290.091 360.073 290.171 361.251 290.058C361.907 290.091 362.557 289.926 363.117 289.585C363.399 289.324 363.613 288.997 363.739 288.634C364.242 287.476 364.497 286.225 364.487 284.963C364.478 283.701 364.204 282.454 363.683 281.304C363.538 281.066 363.476 280.785 363.509 280.508C363.565 280.343 363.657 280.193 363.777 280.067C365.021 278.6 366.333 277.132 366.837 275.354C367.341 273.576 366.725 271.388 364.89 270.598C364.432 270.401 363.939 270.299 363.441 270.299C362.942 270.299 362.449 270.401 361.991 270.598C361.133 270.99 360.467 271.717 359.503 271.91C357.942 272.233 356.605 270.977 355.386 270.045C353.505 268.655 351.268 267.827 348.935 267.657C347.899 267.539 346.85 267.678 345.881 268.062C344.976 268.575 344.139 269.202 343.393 269.927C340.613 272.171 336.719 272.799 333.235 274.024C332.57 274.26 331.83 274.608 331.705 275.267C331.581 275.926 332.327 276.591 333.074 276.877C333.82 277.163 334.678 277.35 335.176 277.928C335.798 278.674 335.599 279.731 335.711 280.67C335.941 282.535 337.577 283.548 339.387 284.089C340.799 284.518 342.765 285.737 344.251 285.488Z" fill="#A66477"/>
<path opacity="0.05" d="M331.817 359.571C331.817 359.571 342.821 361.436 345.57 367.373C348.319 373.31 364.853 389.375 364.853 389.375" fill="black"/>
<g opacity="0.05">
<path opacity="0.05" d="M296.517 382.847C294.782 383.618 277.446 378.228 277.446 378.228C277.233 376.553 277.252 374.856 277.502 373.186C276.507 375.586 277.061 379.577 277.061 379.577C277.061 379.577 294.396 384.967 296.132 384.197C296.704 383.942 297.258 382.462 297.743 380.591C297.357 381.791 296.947 382.673 296.517 382.847Z" fill="black"/>
<path opacity="0.05" d="M286.478 333.328C286.336 333.719 286.216 334.118 286.117 334.522C286.117 334.522 281.937 359.471 279.443 368.716C281.751 361.212 286.105 335.548 286.478 333.328Z" fill="black"/>
<path opacity="0.05" d="M312.118 397.482C312.118 397.482 299.211 378.831 299.789 370.127C299.789 370.127 299.652 371.209 299.41 372.738C299.994 381.84 311.732 398.838 311.732 398.838C320.708 398.838 324.72 392.484 326.455 385.813C324.539 391.955 320.49 397.482 312.118 397.482Z" fill="black"/>
</g>
<path d="M278.871 380.131C278.871 380.131 290.639 386.609 294.882 383.525C299.124 380.441 296.424 375.629 296.424 375.629L293.146 370.239H282.167L278.51 376.593L278.871 380.131Z" fill="#7679B4"/>
<path d="M359.124 405.571C359.124 405.571 359.895 390.171 340.246 390.364C320.596 390.557 339.474 390.364 339.474 390.364C339.474 390.364 331.767 388.051 322.139 393.472C312.51 398.894 301.525 397.706 301.525 397.706C301.525 397.706 292.661 412.341 300.946 416.575C309.232 420.809 311.925 415.002 311.925 415.002C311.925 415.002 328.875 418.272 332.732 413.846C335.485 416.573 338.979 418.431 342.78 419.189C346.581 419.947 350.521 419.572 354.11 418.111C354.11 418.111 363.746 413.846 359.124 405.571Z" fill="#7679B4"/>
</g>
<defs>
<linearGradient id="paint0_linear" x1="341.689" y1="425.497" x2="341.689" y2="265.612" gradientUnits="userSpaceOnUse">
<stop stop-color="#808080" stop-opacity="0.25"/>
<stop offset="0.54" stop-color="#808080" stop-opacity="0.12"/>
<stop offset="1" stop-color="#808080" stop-opacity="0.1"/>
</linearGradient>
<clipPath id="clip0">
<rect width="616" height="452" fill="white"/>
</clipPath>
</defs>
</svg>
